<?xml version="1.0" encoding="UTF-8"?>
<svg id="Layer_2" data-name="Layer 2" xmlns="http://www.w3.org/2000/svg" viewBox="0 0 30 30">
  <defs>
    <style>
      .cls-1, .cls-2 {
        fill: #fff;
      }

      .cls-2 {
        opacity: 0;
      }
    </style>
  </defs>
  <g id="Layer_1-2" data-name="Layer 1">
    <g>
      <g>
        <path class="cls-1" d="m29.04,20.73c-.4.99-.91,1.93-1.5,2.79-.38-.63-.8-1.24-1.27-1.81l.29-.54c.39-.73.71-1.49.95-2.27.55.57,1.06,1.18,1.53,1.82Z"/>
        <path class="cls-1" d="m29.04,20.73c-.4.99-.91,1.93-1.5,2.79-.38-.63-.8-1.24-1.27-1.81l.29-.54c.39-.73.71-1.49.95-2.27.55.57,1.06,1.18,1.53,1.82Z"/>
        <path class="cls-1" d="m26.28,15c0,.14,0,.29,0,.43-.03.71-.12,1.41-.27,2.09-.23.99-.58,1.93-1.05,2.8-.43-.4-.89-.78-1.37-1.13-.29-.21-.58-.41-.89-.6-2.3-1.43-4.94-2.18-7.69-2.18s-5.38.75-7.69,2.18c.26.56.58,1.08.95,1.56,1.55,2.03,4,3.34,6.74,3.34s5.19-1.31,6.74-3.34c.1.06.19.12.29.19.1.06.19.13.28.19h0c.06.04.12.09.19.13.05.04.1.08.16.12s.1.08.16.12c.05.04.1.08.15.12.09.07.19.15.27.23.11.09.21.18.32.27.05.04.1.09.14.13l.11.1h.01s.07.08.11.12c-2.07,2.68-5.31,4.41-8.94,4.41s-6.88-1.73-8.94-4.41c-.38-.49-.72-1.01-1.01-1.56-1.01.94-1.88,2.02-2.59,3.21-.59-.87-1.1-1.81-1.5-2.8.87-1.19,1.89-2.27,3.04-3.21.25-.21.51-.41.77-.6.57-.42,1.17-.8,1.78-1.14,2.57-1.44,5.46-2.18,8.45-2.18s5.88.75,8.45,2.18c.02-.26.04-.52.04-.78,0-.44-.03-.88-.1-1.31-.63-4.06-4.15-7.18-8.39-7.18s-7.76,3.12-8.39,7.18c-1,.49-1.97,1.07-2.89,1.74,0-.14,0-.29,0-.43,0-6.22,5.06-11.28,11.28-11.28s11.28,5.06,11.28,11.28Z"/>
        <path class="cls-1" d="m21.74,20.14c.1.06.19.12.29.19-.1-.06-.19-.13-.29-.19h0Z"/>
        <path class="cls-1" d="m22.66,20.78c-.05-.04-.1-.08-.16-.12-.06-.05-.12-.09-.19-.13.06.04.13.09.19.13.05.04.1.08.16.12Z"/>
      </g>
      <rect class="cls-2" width="30" height="30"/>
    </g>
  </g>
</svg>