<?xml version="1.0" encoding="UTF-8"?>
<svg id="Layer_2" data-name="Layer 2" xmlns="http://www.w3.org/2000/svg" viewBox="0 0 183.48 29.04">
  <defs>
    <style>
      .cls-1 {
        fill: #ef4747;
      }
    </style>
  </defs>
  <g id="Layer_1-2" data-name="Layer 1">
    <g>
      <g>
        <path class="cls-1" d="m60.28,15.61h-12.13c.18,1.07.64,1.92,1.4,2.55.76.63,1.73.95,2.91.95,1.41,0,2.62-.49,3.64-1.48l3.18,1.49c-.79,1.12-1.74,1.96-2.85,2.5-1.11.54-2.42.81-3.94.81-2.36,0-4.28-.74-5.77-2.23-1.49-1.49-2.23-3.35-2.23-5.6s.74-4.2,2.22-5.72c1.48-1.52,3.34-2.28,5.57-2.28,2.37,0,4.3.76,5.78,2.28,1.48,1.52,2.23,3.52,2.23,6.01v.72Zm-3.78-2.97c-.25-.84-.74-1.52-1.48-2.05-.73-.53-1.59-.79-2.56-.79-1.05,0-1.98.3-2.77.89-.5.37-.96,1.02-1.39,1.95h8.19Z"/>
        <path class="cls-1" d="m75.47,1.19h3.78v20.86h-3.78v-1.59c-.74.7-1.48,1.21-2.22,1.51s-1.55.46-2.41.46c-1.94,0-3.63-.75-5.04-2.26s-2.13-3.38-2.13-5.62.69-4.23,2.06-5.71c1.37-1.49,3.04-2.23,5-2.23.9,0,1.75.17,2.54.51s1.52.85,2.2,1.53V1.19Zm-3.97,8.91c-1.17,0-2.14.41-2.91,1.24s-1.16,1.88-1.16,3.17.39,2.37,1.18,3.21c.79.84,1.75,1.26,2.9,1.26s2.17-.41,2.95-1.24c.78-.83,1.17-1.91,1.17-3.24s-.39-2.37-1.17-3.18c-.78-.81-1.77-1.22-2.96-1.22Z"/>
        <path class="cls-1" d="m99.25,15.61h-12.13c.18,1.07.64,1.92,1.4,2.55.76.63,1.73.95,2.91.95,1.41,0,2.62-.49,3.64-1.48l3.18,1.49c-.79,1.12-1.74,1.96-2.85,2.5-1.11.54-2.42.81-3.94.81-2.36,0-4.28-.74-5.77-2.23-1.49-1.49-2.23-3.35-2.23-5.6s.74-4.2,2.22-5.72c1.48-1.52,3.34-2.28,5.57-2.28,2.37,0,4.3.76,5.78,2.28,1.48,1.52,2.23,3.52,2.23,6.01v.72Zm-3.78-2.97c-.25-.84-.74-1.52-1.48-2.05-.73-.53-1.59-.79-2.56-.79-1.05,0-1.98.3-2.77.89-.5.37-.96,1.02-1.39,1.95h8.19Z"/>
        <path class="cls-1" d="m103.36,7h3.78v1.54c.86-.72,1.63-1.22,2.33-1.51.69-.28,1.41-.42,2.13-.42,1.49,0,2.76.52,3.8,1.56.87.89,1.31,2.19,1.31,3.93v9.95h-3.74v-6.59c0-1.8-.08-2.99-.24-3.58-.16-.59-.44-1.04-.84-1.35s-.89-.46-1.48-.46c-.76,0-1.42.26-1.97.77-.55.51-.93,1.22-1.14,2.12-.11.47-.17,1.49-.17,3.05v6.04h-3.78V7Z"/>
        <path class="cls-1" d="m132.62,7h3.78v15.05h-3.78v-1.59c-.74.7-1.48,1.21-2.22,1.51s-1.55.46-2.41.46c-1.94,0-3.63-.75-5.04-2.26-1.42-1.51-2.13-3.38-2.13-5.62s.69-4.23,2.06-5.71c1.37-1.49,3.04-2.23,5-2.23.9,0,1.75.17,2.54.51s1.52.85,2.2,1.53v-1.66Zm-3.97,3.1c-1.17,0-2.14.41-2.91,1.24s-1.16,1.88-1.16,3.17.39,2.37,1.18,3.21c.79.84,1.75,1.26,2.9,1.26s2.17-.41,2.95-1.24c.78-.83,1.17-1.91,1.17-3.24s-.39-2.37-1.17-3.18c-.78-.81-1.77-1.22-2.96-1.22Z"/>
        <path class="cls-1" d="m140.94,7h3.24v1.9c.35-.75.82-1.31,1.4-1.7.58-.39,1.22-.58,1.91-.58.49,0,1,.13,1.54.39l-1.18,3.25c-.44-.22-.81-.33-1.09-.33-.58,0-1.07.36-1.47,1.08-.4.72-.6,2.13-.6,4.23v.73s.01,6.09.01,6.09h-3.75V7Z"/>
        <path class="cls-1" d="m166.17,10.04l-3.14,1.73c-.59-.62-1.18-1.05-1.75-1.29s-1.25-.36-2.03-.36c-1.41,0-2.56.42-3.43,1.26-.87.84-1.31,1.92-1.31,3.24s.42,2.32,1.26,3.14c.84.81,1.94,1.22,3.31,1.22,1.69,0,3.01-.58,3.95-1.73l2.98,2.04c-1.61,2.1-3.89,3.15-6.83,3.15-2.65,0-4.72-.78-6.22-2.35-1.5-1.57-2.25-3.4-2.25-5.51,0-1.46.36-2.8,1.09-4.03.73-1.23,1.74-2.19,3.05-2.89,1.3-.7,2.76-1.05,4.38-1.05,1.49,0,2.84.3,4.03.89,1.19.6,2.16,1.44,2.92,2.54Z"/>
        <path class="cls-1" d="m170.15,1.19h3.75v7.33c.74-.64,1.48-1.11,2.23-1.43.75-.32,1.5-.48,2.27-.48,1.49,0,2.75.52,3.78,1.55.88.89,1.31,2.21,1.31,3.94v9.95h-3.72v-6.6c0-1.74-.08-2.92-.25-3.54s-.45-1.08-.85-1.38c-.4-.3-.9-.46-1.49-.46-.77,0-1.42.25-1.97.76-.55.51-.93,1.2-1.14,2.07-.11.45-.17,1.49-.17,3.1v6.05h-3.75V1.19Z"/>
      </g>
      <g>
        <path class="cls-1" d="m36.14,21.9c-.52,1.27-1.17,2.48-1.93,3.59-.49-.81-1.03-1.59-1.64-2.32l.37-.69c.5-.94.91-1.91,1.23-2.92.71.74,1.37,1.52,1.97,2.34Z"/>
        <path class="cls-1" d="m36.14,21.9c-.52,1.27-1.17,2.48-1.93,3.59-.49-.81-1.03-1.59-1.64-2.32l.37-.69c.5-.94.91-1.91,1.23-2.92.71.74,1.37,1.52,1.97,2.34Z"/>
        <path class="cls-1" d="m32.59,14.52c0,.18,0,.37-.01.55-.03.92-.16,1.82-.35,2.69-.29,1.27-.75,2.48-1.35,3.6-.56-.52-1.15-1-1.77-1.46-.37-.27-.75-.53-1.14-.77-2.96-1.84-6.36-2.81-9.89-2.81s-6.93.97-9.89,2.81c.33.71.74,1.39,1.22,2.01,2,2.61,5.14,4.3,8.68,4.3s6.68-1.69,8.68-4.3c.13.08.25.16.37.24.12.08.25.16.36.25h0c.08.06.16.12.24.17.07.05.13.1.2.15s.13.1.2.15c.07.05.13.1.2.16.12.1.24.19.35.29.14.12.27.23.41.35.06.06.12.11.18.17l.15.13.02.02s.1.09.15.14c-2.66,3.45-6.83,5.67-11.51,5.67s-8.85-2.23-11.51-5.67c-.49-.63-.92-1.3-1.3-2.01-1.3,1.21-2.42,2.6-3.33,4.13-.76-1.12-1.41-2.32-1.93-3.6,1.12-1.53,2.43-2.92,3.91-4.13.33-.27.66-.52.99-.77.74-.54,1.5-1.03,2.29-1.46,3.31-1.85,7.02-2.81,10.87-2.81s7.56.96,10.87,2.81c.03-.33.05-.67.05-1.01,0-.57-.04-1.13-.13-1.68-.81-5.23-5.34-9.24-10.79-9.24S8.09,7.61,7.28,12.84c-1.29.63-2.53,1.37-3.72,2.24,0-.18-.01-.37-.01-.55C3.55,6.51,10.06,0,18.07,0s14.52,6.51,14.52,14.52Z"/>
        <path class="cls-1" d="m26.75,21.14c.13.08.25.16.37.24-.12-.08-.25-.16-.37-.24h0Z"/>
        <path class="cls-1" d="m27.93,21.95c-.07-.05-.13-.1-.2-.15-.08-.06-.16-.11-.24-.17.08.06.16.11.24.17.07.05.13.1.2.15Z"/>
      </g>
    </g>
  </g>
</svg>